<?xml version="1.0" standalone="no"?>
<!DOCTYPE svg PUBLIC "-//W3C//DTD SVG 20010904//EN"
 "http://www.w3.org/TR/2001/REC-SVG-20010904/DTD/svg10.dtd">
<svg version="1.0" xmlns="http://www.w3.org/2000/svg"
 width="512.000000pt" height="512.000000pt" viewBox="0 0 512.000000 512.000000"
 preserveAspectRatio="xMidYMid meet">
<metadata>
Created by potrace 1.11, written by Peter Selinger 2001-2013
</metadata>
<g transform="translate(0.000000,512.000000) scale(0.100000,-0.100000)"
fill="#000000" stroke="none">
<path d="M393 5106 c-183 -45 -330 -190 -377 -373 -15 -56 -16 -269 -14 -2195
l3 -2133 22 -60 c67 -175 220 -306 393 -335 46 -8 684 -10 2180 -8 l2115 3 68
27 c166 67 279 194 322 364 14 54 15 300 13 2190 l-3 2129 -23 59 c-64 169
-213 300 -380 335 -82 17 -4248 14 -4319 -3z m3716 -816 c44 -52 81 -98 81
-102 0 -11 -245 -103 -405 -151 -166 -51 -344 -97 -477 -123 l-88 -17 0 -388
0 -389 490 0 490 0 0 -135 0 -135 -145 0 -145 0 0 -1060 0 -1060 -140 0 -140
0 0 1060 0 1060 -204 0 -204 0 -6 -112 c-3 -62 -8 -239 -11 -393 -13 -717 -92
-1169 -274 -1569 -23 -50 -34 -66 -44 -59 -6 5 -50 38 -97 73 -47 35 -95 72
-107 82 l-21 20 24 54 c13 30 24 57 24 59 0 3 -342 5 -760 5 l-760 0 0 -135 0
-135 -135 0 -135 0 0 1830 0 1830 135 0 135 0 2 -227 3 -228 43 63 c23 34 47
62 52 62 4 0 24 -18 42 -41 l34 -41 43 94 c24 51 59 143 79 203 20 61 37 111
38 113 4 7 184 -89 184 -98 0 -20 -74 -198 -136 -329 -35 -74 -64 -138 -64
-143 0 -5 19 -34 42 -63 40 -52 42 -53 56 -34 21 31 137 277 158 337 10 28 23
52 28 52 5 0 48 -21 96 -47 l87 -46 -34 -74 c-49 -106 -216 -421 -285 -536
-32 -55 -58 -100 -58 -102 0 -2 213 35 217 39 1 1 -7 37 -18 80 -11 43 -17 82
-12 86 14 11 163 54 168 48 4 -3 21 -75 39 -159 18 -84 35 -147 37 -140 3 9
28 16 68 20 l64 6 65 103 64 103 -72 94 c-39 52 -115 145 -169 207 l-97 113
49 70 c73 106 68 104 112 51 21 -25 42 -46 47 -46 12 0 80 149 130 289 23 64
43 117 44 119 1 2 43 -17 94 -43 82 -41 90 -48 84 -68 -11 -35 -117 -283 -164
-384 l-43 -92 42 -55 c23 -31 46 -56 51 -56 10 0 167 315 195 393 10 26 22 47
27 47 7 0 167 -77 176 -85 7 -6 -199 -403 -291 -565 -52 -91 -94 -166 -92
-168 5 -5 210 31 218 38 5 4 -1 43 -12 85 -12 43 -20 79 -19 80 2 2 36 13 77
25 40 12 79 24 86 26 9 4 22 -34 45 -127 29 -119 70 -333 70 -363 0 -13 -176
-73 -185 -64 -3 3 -9 38 -12 77 -3 39 -9 73 -12 76 -4 2 -38 -3 -76 -11 -39
-8 -172 -33 -298 -54 -125 -21 -233 -43 -240 -47 -6 -4 -51 -17 -99 -29 l-86
-21 -6 30 c-3 16 -6 52 -6 79 l0 51 -32 -7 c-26 -5 -431 -79 -550 -101 -31 -5
-29 -10 -51 122 -16 94 -16 93 62 93 26 0 55 6 63 13 9 6 44 58 77 115 l61
104 -47 61 c-72 95 -208 260 -232 281 l-21 19 0 -461 0 -462 805 0 805 0 0
-110 0 -110 -805 0 -805 0 0 -252 0 -252 44 63 c25 35 47 65 50 68 3 3 23 -13
44 -37 l38 -43 41 90 c23 49 59 140 80 201 21 62 42 112 47 112 17 0 176 -79
176 -87 0 -20 -85 -226 -142 -345 l-61 -127 27 -38 c14 -21 35 -49 45 -62 l19
-25 50 100 c28 55 69 145 92 200 24 54 46 103 50 107 4 5 49 -12 99 -38 l92
-46 -116 -227 c-63 -125 -148 -283 -189 -352 -41 -69 -72 -127 -70 -129 2 -3
204 29 211 33 1 1 -7 35 -17 76 -11 41 -20 78 -20 82 0 9 169 62 176 55 3 -3
20 -76 39 -164 18 -87 34 -151 34 -142 1 13 16 18 69 24 l67 7 42 66 c22 37
51 84 62 104 l22 36 -82 109 c-45 59 -120 151 -165 204 -46 53 -84 100 -84
103 0 6 95 152 108 166 2 3 25 -19 52 -48 l47 -52 40 87 c42 90 106 256 118
306 4 15 9 27 11 27 3 0 45 -20 94 -45 l89 -45 -18 -52 c-31 -89 -89 -224
-141 -328 -28 -55 -50 -105 -50 -111 0 -14 79 -119 89 -119 9 0 123 221 172
335 23 55 44 101 45 103 1 2 43 -17 92 -42 l91 -46 -23 -52 c-37 -84 -196
-381 -285 -533 -45 -76 -80 -140 -78 -141 3 -4 193 24 213 31 9 2 6 26 -7 82
-10 43 -18 81 -19 84 0 6 157 59 173 59 6 0 63 -233 73 -299 10 -63 20 -35 38
109 44 352 56 696 56 1651 l0 786 103 12 c305 37 694 143 897 246 49 25 68 31
77 22 6 -7 48 -55 92 -107z"/>
<path d="M2031 3214 c0 -11 3 -14 6 -6 3 7 2 16 -1 19 -3 4 -6 -2 -5 -13z"/>
<path d="M2051 3094 c0 -11 3 -14 6 -6 3 7 2 16 -1 19 -3 4 -6 -2 -5 -13z"/>
<path d="M1190 1697 l0 -467 803 0 804 0 11 51 c7 29 10 54 8 57 -3 2 -32 -5
-64 -16 l-60 -20 -6 37 c-3 20 -6 56 -6 80 l0 44 -37 -6 c-21 -3 -157 -26
-303 -51 -146 -25 -268 -46 -272 -46 -4 0 -9 8 -11 18 -2 9 -3 5 -1 -10 3 -26
1 -27 -88 -47 -50 -12 -93 -19 -96 -16 -3 2 -7 38 -10 80 -2 41 -6 75 -7 75
-1 0 -71 -13 -156 -30 -248 -47 -442 -80 -447 -75 -8 8 -39 204 -34 210 3 3
19 5 36 5 97 0 102 4 172 122 l65 110 -42 56 c-64 86 -203 254 -233 281 l-26
24 0 -466z"/>
<path d="M2031 1504 c0 -11 3 -14 6 -6 3 7 2 16 -1 19 -3 4 -6 -2 -5 -13z"/>
<path d="M2041 1444 c0 -11 3 -14 6 -6 3 7 2 16 -1 19 -3 4 -6 -2 -5 -13z"/>
</g>
</svg>
